<svg version="1.0" xmlns="http://www.w3.org/2000/svg" viewBox="0 0 700.000000 700.000000"
 preserveAspectRatio="xMidYMid meet">
<g transform="translate(0.000000,700.000000) scale(0.100000,-0.100000)"
fill="#000000" stroke="none">
<path d="M2687 5334 c-1 -1 -157 -4 -347 -7 -335 -4 -348 -5 -455 -32 -394
-98 -719 -368 -923 -765 -83 -162 -155 -359 -188 -517 -1 -6 -7 -35 -13 -64
-7 -29 -14 -76 -17 -104 -3 -27 -7 -52 -9 -55 -8 -13 -19 -206 -19 -325 0
-123 6 -222 20 -338 13 -104 14 -101 -36 -108 -25 -4 -121 -7 -215 -8 -246 -2
-300 -10 -345 -48 -82 -69 -92 -144 -92 -713 0 -578 8 -658 78 -720 19 -16 38
-30 42 -31 4 0 16 -3 27 -5 65 -15 707 -19 2775 -19 2451 0 2554 2 2804 41
114 18 343 133 501 252 93 69 243 228 313 330 125 183 211 387 227 542 15 141
25 1345 12 1415 -3 17 -9 59 -12 95 -4 36 -9 68 -11 71 -2 3 -6 21 -9 39 -8
46 -65 191 -113 285 -79 157 -213 320 -377 459 -90 77 -165 126 -290 189 -217
110 -280 120 -795 132 -221 6 -2528 13 -2533 9z m2368 -128 c331 -7 607 -16
640 -21 82 -11 265 -90 380 -163 358 -228 559 -533 630 -952 8 -48 19 -570 12
-570 -3 0 -24 34 -47 75 -155 281 -413 507 -750 658 -123 55 -262 79 -535 95
-150 8 -2105 7 -2770 -2 -837 -11 -902 -20 -1164 -161 -216 -116 -360 -261
-456 -460 -41 -83 -79 -205 -90 -286 -7 -51 -7 -204 1 -257 40 -289 213 -576
440 -730 105 -72 298 -152 399 -167 22 -3 54 -8 70 -10 126 -22 661 -29 1985
-30 1094 0 1354 4 1443 20 91 17 119 26 177 55 70 36 160 100 204 144 229 238
228 631 -4 864 -53 54 -103 87 -214 145 l-90 47 -1600 0 -1601 0 -64 -67 c-81
-85 -92 -111 -87 -211 5 -105 53 -209 111 -239 51 -27 260 -32 2050 -48 725
-7 980 -15 1007 -31 18 -12 5 -22 -34 -28 -108 -15 -787 -24 -2147 -26 l-823
-2 -70 48 c-141 98 -172 155 -175 329 -2 114 -1 123 27 180 40 83 91 130 161
148 134 35 260 38 1684 38 1136 0 1418 -3 1547 -16 129 -14 282 -96 393 -211
140 -146 190 -291 180 -524 -2 -58 -6 -114 -9 -125 -14 -64 -21 -85 -44 -130
-96 -195 -277 -345 -527 -437 -35 -13 -246 -14 -1595 -12 -1847 2 -1831 2
-2035 60 -388 112 -624 329 -753 695 -17 47 -33 108 -37 135 -4 27 -8 60 -10
73 -9 55 -19 277 -19 416 0 203 10 323 34 430 12 50 23 97 25 106 19 87 94
287 146 390 177 355 457 609 784 712 120 37 186 49 335 56 140 8 2516 5 2885
-3z m470 -1000 c307 -31 584 -165 816 -396 175 -174 282 -366 339 -604 56
-233 42 -502 -37 -730 -110 -315 -298 -541 -597 -718 -205 -121 -278 -138
-666 -155 -218 -10 -4897 -11 -5039 -1 -147 10 -164 26 -171 158 -6 112 -4
891 2 973 8 104 31 138 104 152 61 11 504 4 510 -8 0 -1 18 -44 39 -96 38 -92
98 -200 139 -253 12 -14 32 -41 46 -59 38 -49 139 -150 196 -195 160 -126 520
-237 812 -249 260 -12 594 -15 1597 -15 1346 0 1574 5 1710 41 321 84 590 344
651 630 23 105 23 307 0 414 -23 113 -65 194 -151 298 -80 96 -195 184 -332
251 l-116 57 -1551 2 c-853 1 -1594 -1 -1646 -5 -142 -11 -214 -42 -299 -130
-51 -52 -107 -163 -121 -238 -47 -245 86 -486 310 -565 24 -8 93 -19 154 -23
111 -7 2705 -10 2846 -3 129 6 171 30 196 110 15 49 -1 106 -42 146 -32 32
-59 41 -154 52 -19 2 -611 6 -1315 8 -1303 4 -1519 7 -1586 25 -52 14 -82 58
-87 130 -7 93 29 151 103 164 83 16 342 19 1653 20 l1424 2 109 -56 c167 -84
224 -141 264 -260 15 -44 19 -86 19 -210 1 -147 -1 -158 -26 -212 -61 -131
-235 -260 -401 -298 -81 -18 -318 -21 -1317 -21 -1338 1 -1817 8 -2020 27
-242 22 -443 115 -605 278 -180 181 -276 420 -270 667 12 451 369 801 901 885
16 3 171 7 344 10 173 3 320 7 325 8 22 7 2874 -1 2940 -8z"/>
</g>
</svg>
