<svg id="Ebene_1" data-name="Ebene 1" xmlns="http://www.w3.org/2000/svg" viewBox="0 0 734.81 117.66"><defs><style>.cls-1{fill:#1d1d1b;}.cls-2{fill:#e8e100;}</style></defs><title>SchwabenStoffe-LogoFinal-mit-gelber-Linie</title><path class="cls-1" d="M28.39,74q0,7.83-4.11,12.26c-2.74,3-6.71,4.42-11.88,4.42A23.22,23.22,0,0,1,5,89.57a18.12,18.12,0,0,1-5-2.4V80.83a15.23,15.23,0,0,0,5.6,3.4,20.61,20.61,0,0,0,7.14,1.28,9.47,9.47,0,0,0,7.54-3.14A12.3,12.3,0,0,0,23,74a11.88,11.88,0,0,0-2-6.94q-2-2.82-7.51-6.42a50.93,50.93,0,0,1-8.66-6.4,17.87,17.87,0,0,1-3.59-5.37A17.69,17.69,0,0,1,0,41.76,14.74,14.74,0,0,1,4.51,30.7,15.85,15.85,0,0,1,16,26.33,21.12,21.12,0,0,1,28.5,29.88l-2.8,4.74a17.48,17.48,0,0,0-9.93-3.15A10.45,10.45,0,0,0,8.11,34.3a10,10,0,0,0-2.85,7.46A11.66,11.66,0,0,0,7.2,48.64q1.93,2.78,8.22,6.71a51.45,51.45,0,0,1,8.46,6.49,16.13,16.13,0,0,1,3.4,5.37A19,19,0,0,1,28.39,74Z"/><path class="cls-1" d="M54.77,90.65a15.25,15.25,0,0,1-14-8.08Q36,74.49,36,58.84,36,43,40.8,34.64t14.08-8.31a19.65,19.65,0,0,1,9.6,2.12l-2.12,4.8a16.91,16.91,0,0,0-7-1.78q-13.65,0-13.65,27.25,0,27,13.65,27a24.54,24.54,0,0,0,8.79-1.83v4.57a16.52,16.52,0,0,1-4.62,1.6A23.81,23.81,0,0,1,54.77,90.65Z"/><path class="cls-1" d="M100.94,89.51V46.78q0-8.39-2.2-11.91t-7.17-3.51a10.69,10.69,0,0,0-9.88,5.83Q78.38,43,78.38,55.58V89.51H73V.63h5.43V29.48q0,3.93-.23,6.56h.45a15.21,15.21,0,0,1,5.52-7.16,13.28,13.28,0,0,1,7.68-2.55q7.89,0,11.2,5.14t3.31,15.31V89.51Z"/><path class="cls-1" d="M154.32,89.51l-8.57-42c-.08-.31-.14-.63-.2-1s-.66-4-1.8-11h-.11l-.8,4.85-1.32,7.09-8.85,42h-6.46l-13.48-62h5.43l7.71,36.1,3.6,18.86h.34q1-8.17,3.32-19l7.71-36h5.71l7.77,36.1q.92,4.07,3.25,18.86h.35q.17-1.89,1.68-9.49t9.68-45.47h5.37l-13.93,62Z"/><path class="cls-1" d="M206.06,89.51l-.69-8.68h-.23q-4.45,9.83-13.48,9.82a11.66,11.66,0,0,1-9.74-4.82q-3.67-4.83-3.68-12.94,0-8.85,5.31-14t14.91-5.62l6.68-.34V47.75q0-8.67-2.17-12.65c-1.44-2.64-3.84-4-7.19-4a20.31,20.31,0,0,0-10.86,3.49l-2.34-4.29a25.38,25.38,0,0,1,13.54-4q7.65,0,11,4.83t3.37,16.14V89.51ZM192.86,86q5.83,0,9.06-5.74T205.14,64V57.58l-6.45.34q-7.49.4-11.11,4.14T184,73q0,6.75,2.4,9.89A7.77,7.77,0,0,0,192.86,86Z"/><path class="cls-1" d="M242.75,26.45q18.15,0,18.16,31.93,0,15.76-4.51,24t-13,8.25a14.28,14.28,0,0,1-8.11-2.45,18.37,18.37,0,0,1-6-7.26h-.46L228,89.51h-4.46V.63H229V28.22l-.23,7.48h.46Q234.11,26.45,242.75,26.45Zm-.23,5a10.8,10.8,0,0,0-10.34,6.29Q229,44,229,58.38v1.43q0,25.93,13.77,25.93c4.18,0,7.32-2.23,9.39-6.68s3.11-11.35,3.11-20.68q0-13.43-3-20.16T242.52,31.47Z"/><path class="cls-1" d="M290.1,90.65A16.87,16.87,0,0,1,275,82.29Q269.71,73.92,269.7,59q0-15.89,4.72-24.25T288,26.33q7.71,0,12.17,7.34t4.46,19.8v5H275.25q.11,13.54,3.82,20.28a12.07,12.07,0,0,0,11.26,6.74,24.22,24.22,0,0,0,12.28-3.82v5.25A23.19,23.19,0,0,1,290.1,90.65Zm-2.46-59.4q-11.19,0-12.28,22.33h23.82q0-10.23-3.11-16.28T287.64,31.25Z"/><path class="cls-1" d="M342.91,89.51V46.78q0-15.42-9.14-15.42-7,0-10.19,5.77t-3.23,18.34v34h-5.43v-62h4.57l.46,8.63h.51a16.25,16.25,0,0,1,5.6-7.26,13.4,13.4,0,0,1,7.83-2.57q7.19,0,10.79,4.83t3.6,15.51V89.51Z"/><path class="cls-1" d="M395.77,70.89q0,9.31-5.46,14.54t-16.08,5.22q-9.42,0-15.59-3.71V73.75A29.69,29.69,0,0,0,366,77.34a23.16,23.16,0,0,0,7.4,1.43A7.58,7.58,0,0,0,378.77,77a6,6,0,0,0,1.86-4.6,7.4,7.4,0,0,0-1.94-5.08A33.11,33.11,0,0,0,371.55,62q-6.92-4.12-9.91-8.77a19.87,19.87,0,0,1-3-11q0-8.12,5.57-12.85t15.28-4.74a30.67,30.67,0,0,1,15.94,4.45l-5,10.91q-6.12-3.32-10.74-3.31a5.72,5.72,0,0,0-4.37,1.54A5.31,5.31,0,0,0,373.89,42a6.62,6.62,0,0,0,1.8,4.57,31.43,31.43,0,0,0,6.71,5,43.1,43.1,0,0,1,8.34,6.11,18.12,18.12,0,0,1,3.71,5.72A19.48,19.48,0,0,1,395.77,70.89Z"/><path class="cls-1" d="M427.09,77.8A17.52,17.52,0,0,0,434,76.2V88.08q-3.72,2.58-11.14,2.57-8.28,0-12.28-4.94t-4-14.82v-33h-6.17v-6.8l7.94-5.48,3.88-13.48h9.71V25.88h11.54V37.93H421.94V71.4Q421.94,77.81,427.09,77.8Z"/><path class="cls-1" d="M487.51,57.58q0,15.65-6.63,24.36t-18.16,8.71a21.66,21.66,0,0,1-12.91-4,25.32,25.32,0,0,1-8.63-11.52,46.71,46.71,0,0,1-3-17.56q0-15.48,6.57-24.19t18.22-8.71a21.22,21.22,0,0,1,17.91,8.88Q487.51,42.44,487.51,57.58Zm-33.82,0q0,9.94,2.17,15t7,5.09q9.14,0,9.14-20.11,0-10-2.2-14.94t-6.94-4.94q-4.8,0-7,4.94T453.69,57.58Z"/><path class="cls-1" d="M524.28,37.93H513.77V89.51h-15.2V37.93H491.2v-7.6l7.37-4.57V21q0-10.62,4.4-15.79T517.14,0a26.06,26.06,0,0,1,11.48,2.57l-4,11.6a13.25,13.25,0,0,0-5.83-1.37,4.09,4.09,0,0,0-3.82,2c-.8,1.37-1.2,3.49-1.2,6.34v4.69h10.51Zm35,0H548.73V89.51h-15.2V37.93h-7.37v-7.6l7.37-4.57V21q0-10.62,4.4-15.79T552.1,0a26.06,26.06,0,0,1,11.48,2.57l-4,11.6a13.28,13.28,0,0,0-5.83-1.37,4.09,4.09,0,0,0-3.82,2c-.8,1.37-1.2,3.49-1.2,6.34v4.69h10.51Z"/><path class="cls-1" d="M588.1,90.65q-11.94,0-18.83-8.48t-6.88-24q0-15.76,6.23-24.62T586,24.68q10.39,0,16.4,7.57t6,21.22v8.11H577.81q.18,8.51,3.49,12.65a11.06,11.06,0,0,0,9.14,4.14,29.64,29.64,0,0,0,15.19-4.62V86.26Q598.33,90.66,588.1,90.65Zm-2.23-54.26q-3.25,0-5.37,3.45T578,50.55h15.43q-.12-7-2.12-10.56T585.87,36.39Z"/><path class="cls-1" d="M734.81,49.33a24.52,24.52,0,0,0-24.49-24.49H656.7a22.65,22.65,0,0,0-18.25,8.83c-6.05,7.59-8.67,19.85-6.58,30.69h-7.58a4.55,4.55,0,0,0-4.57,4.53V86.31a4.57,4.57,0,0,0,4.57,4.56h86a24.51,24.51,0,0,0,24.49-24.48c0-.33,0-.65,0-1ZM656.7,26.86h53.62a22.5,22.5,0,0,1,22.47,22.47v7.32l0-.08a24.39,24.39,0,0,0-11.83-12.26c-.63-.3-1.27-.58-1.91-.82l-.33-.13-.9-.3-1-.29-.89-.22c-.4-.09-.8-.18-1.2-.25l-.13,0-.38-.06c-.55-.09-1.1-.16-1.66-.21l-.41,0c-.6,0-1.2-.07-1.82-.07H656.7c-11.17,0-19.08,4.61-21.7,12.65a18,18,0,0,0,6.7,19.78c3.9,2.54,9.08,3.77,15.85,3.77H703.7c5.88,0,10.44-2.49,12.51-6.84a10.8,10.8,0,0,0,1-4.55,11.16,11.16,0,0,0-.94-4.49c-1.8-4-5.79-6.3-10.94-6.3H657.08a4.79,4.79,0,0,0-4.55,2.85,4.93,4.93,0,0,0-.35,2.11,4.84,4.84,0,0,0,.44,2.07,4.61,4.61,0,0,0,4.31,2.88h48.63a.78.78,0,0,1,.76.77.77.77,0,0,1-.76.76H657.13a6.17,6.17,0,0,1-5.89-3.79,7.14,7.14,0,0,1-.56-2.7,7,7,0,0,1,.45-2.68,6.19,6.19,0,0,1,6-3.77,1.26,1.26,0,0,0,.28,0h48c5.75,0,10.23,2.63,12.29,7.21a12.1,12.1,0,0,1,1.08,5.16,12.4,12.4,0,0,1-1.16,5.15c-2.3,4.89-7.35,7.7-13.87,7.7H657.55c-7.19,0-12.49-1.26-16.66-4-4-2.63-5.9-7.17-6.8-10.5-2.41-10.59,0-22.73,5.94-30.21A20.7,20.7,0,0,1,656.7,26.86Zm-35,59.45V68.89a2.53,2.53,0,0,1,2.54-2.51h8.05c1.06,3.52,3.2,8.14,7.44,11,4.53,2.93,10.17,4.29,17.77,4.29H703.7c7.33,0,13.06-3.23,15.7-8.87a14.45,14.45,0,0,0,.09-12c-2.4-5.33-7.55-8.39-14.13-8.39H657.23a1.64,1.64,0,0,0-.32,0,8,8,0,0,0-7.65,5,9.34,9.34,0,0,0,.13,6.92,8.26,8.26,0,0,0,7.84,5h48.33a2.82,2.82,0,0,0,2.78-2.79,2.79,2.79,0,0,0-2.78-2.79H657.05a2.65,2.65,0,0,1-2.58-1.66,3.18,3.18,0,0,1-.27-1.32,3.06,3.06,0,0,1,.2-1.29,2.82,2.82,0,0,1,2.72-1.59h48.24c4.32,0,7.64,1.86,9.09,5.1a9,9,0,0,1,.76,3.67,8.67,8.67,0,0,1-.83,3.69c-1.72,3.61-5.62,5.68-10.68,5.68H657.55c-6.36,0-11.18-1.12-14.7-3.41a15.9,15.9,0,0,1-5.93-17.49c2.34-7.16,9.55-11.26,19.78-11.26h53.62c.69,0,1.38,0,2.13.1l0-.5.09.51c.58.06,1.2.15,1.9.28l.34.06c.55.11,1.08.25,1.61.4l.1,0,.56.16c.42.13.83.28,1.24.44s.8.32,1.2.5l.63.29a22.73,22.73,0,0,1,9.89,9.47l.45-.24-.37.39c.28.52.54,1.06.79,1.62.16.37.31.75.45,1.13.08.2.15.4.24.68q.27.8.48,1.62l0,.22a21.9,21.9,0,0,1,.6,4.22l0,.11c0,.33,0,.65,0,1a22.49,22.49,0,0,1-22.47,22.46h-86A2.54,2.54,0,0,1,621.75,86.31Z"/><polygon class="cls-2" points="542.9 117.66 554.43 106.13 552.68 104.37 552.68 104.37 541.14 115.9 542.9 117.66"/><polygon class="cls-2" points="562.94 117.66 574.48 106.13 572.72 104.37 572.72 104.37 561.19 115.9 562.94 117.66"/><polygon class="cls-2" points="549.58 117.66 561.11 106.13 559.36 104.37 559.36 104.37 547.82 115.9 549.58 117.66"/><polygon class="cls-2" points="529.54 117.66 541.07 106.13 539.32 104.37 539.32 104.37 527.78 115.9 529.54 117.66"/><polygon class="cls-2" points="556.26 117.66 567.79 106.13 566.04 104.37 566.04 104.37 554.5 115.9 556.26 117.66"/><polygon class="cls-2" points="636.43 117.66 647.97 106.13 646.21 104.37 646.21 104.37 634.67 115.9 636.43 117.66"/><polygon class="cls-2" points="496.13 117.66 507.67 106.13 505.91 104.37 505.91 104.37 494.38 115.9 496.13 117.66"/><polygon class="cls-2" points="522.86 117.66 534.39 106.13 532.63 104.37 532.63 104.37 521.1 115.9 522.86 117.66"/><polygon class="cls-2" points="509.5 117.66 521.03 106.13 519.27 104.37 519.27 104.37 507.74 115.9 509.5 117.66"/><polygon class="cls-2" points="516.18 117.66 527.71 106.13 525.95 104.37 525.95 104.37 514.42 115.9 516.18 117.66"/><polygon class="cls-2" points="502.82 117.66 514.35 106.13 512.59 104.37 512.59 104.37 501.06 115.9 502.82 117.66"/><polygon class="cls-2" points="609.71 117.66 621.24 106.13 619.48 104.37 619.48 104.37 607.95 115.9 609.71 117.66"/><polygon class="cls-2" points="616.39 117.66 627.92 106.13 626.16 104.37 626.16 104.37 614.63 115.9 616.39 117.66"/><polygon class="cls-2" points="603.03 117.66 614.56 106.13 612.8 104.37 612.8 104.37 601.27 115.9 603.03 117.66"/><polygon class="cls-2" points="623.07 117.66 634.6 106.13 632.85 104.37 632.85 104.37 621.31 115.9 623.07 117.66"/><polygon class="cls-2" points="629.75 117.66 641.28 106.13 639.53 104.37 639.53 104.37 627.99 115.9 629.75 117.66"/><polygon class="cls-2" points="576.3 117.66 587.84 106.13 586.08 104.37 586.08 104.37 574.55 115.9 576.3 117.66"/><polygon class="cls-2" points="569.62 117.66 581.16 106.13 579.4 104.37 579.4 104.37 567.87 115.9 569.62 117.66"/><polygon class="cls-2" points="582.99 117.66 594.52 106.13 592.76 104.37 592.76 104.37 581.23 115.9 582.99 117.66"/><polygon class="cls-2" points="596.35 117.66 607.88 106.13 606.12 104.37 606.12 104.37 594.59 115.9 596.35 117.66"/><polygon class="cls-2" points="589.67 117.66 601.2 106.13 599.44 104.37 599.44 104.37 587.91 115.9 589.67 117.66"/><polygon class="cls-2" points="489.45 117.66 500.99 106.13 499.23 104.37 499.23 104.37 487.7 115.9 489.45 117.66"/><polygon class="cls-2" points="382.56 117.66 394.1 106.13 392.34 104.37 392.34 104.37 380.81 115.9 382.56 117.66"/><polygon class="cls-2" points="375.88 117.66 387.41 106.13 385.66 104.37 385.66 104.37 374.12 115.9 375.88 117.66"/><polygon class="cls-2" points="389.24 117.66 400.78 106.13 399.02 104.37 399.02 104.37 387.49 115.9 389.24 117.66"/><polygon class="cls-2" points="402.6 117.66 414.14 106.13 412.38 104.37 412.38 104.37 400.85 115.9 402.6 117.66"/><polygon class="cls-2" points="395.92 117.66 407.46 106.13 405.7 104.37 405.7 104.37 394.17 115.9 395.92 117.66"/><polygon class="cls-2" points="369.2 117.66 380.73 106.13 378.98 104.37 378.98 104.37 367.44 115.9 369.2 117.66"/><polygon class="cls-2" points="482.77 117.66 494.31 106.13 492.55 104.37 492.55 104.37 481.02 115.9 482.77 117.66"/><polygon class="cls-2" points="342.48 117.66 354.01 106.13 352.25 104.37 352.25 104.37 340.72 115.9 342.48 117.66"/><polygon class="cls-2" points="349.16 117.66 360.69 106.13 358.93 104.37 358.93 104.37 347.4 115.9 349.16 117.66"/><polygon class="cls-2" points="362.52 117.66 374.05 106.13 372.3 104.37 372.3 104.37 360.76 115.9 362.52 117.66"/><polygon class="cls-2" points="355.84 117.66 367.37 106.13 365.61 104.37 365.61 104.37 354.08 115.9 355.84 117.66"/><polygon class="cls-2" points="409.29 117.66 420.82 106.13 419.06 104.37 419.06 104.37 407.53 115.9 409.29 117.66"/><polygon class="cls-2" points="456.05 117.66 467.58 106.13 465.83 104.37 465.83 104.37 454.29 115.9 456.05 117.66"/><polygon class="cls-2" points="462.73 117.66 474.26 106.13 472.51 104.37 472.51 104.37 460.97 115.9 462.73 117.66"/><polygon class="cls-2" points="476.09 117.66 487.63 106.13 485.87 104.37 485.87 104.37 474.34 115.9 476.09 117.66"/><polygon class="cls-2" points="449.37 117.66 460.9 106.13 459.14 104.37 459.14 104.37 447.61 115.9 449.37 117.66"/><polygon class="cls-2" points="469.41 117.66 480.94 106.13 479.19 104.37 479.19 104.37 467.65 115.9 469.41 117.66"/><polygon class="cls-2" points="415.97 117.66 427.5 106.13 425.74 104.37 425.74 104.37 414.21 115.9 415.97 117.66"/><polygon class="cls-2" points="429.33 117.66 440.86 106.13 439.1 104.37 439.1 104.37 427.57 115.9 429.33 117.66"/><polygon class="cls-2" points="422.65 117.66 434.18 106.13 432.42 104.37 432.42 104.37 420.89 115.9 422.65 117.66"/><polygon class="cls-2" points="436.01 117.66 447.54 106.13 445.78 104.37 445.78 104.37 434.25 115.9 436.01 117.66"/><polygon class="cls-2" points="442.69 117.66 454.22 106.13 452.46 104.37 452.46 104.37 440.93 115.9 442.69 117.66"/><polygon class="cls-2" points="335.8 117.66 347.33 106.13 345.57 104.37 345.57 104.37 334.04 115.9 335.8 117.66"/><polygon class="cls-2" points="709.92 117.66 721.45 106.13 719.7 104.37 719.7 104.37 708.16 115.9 709.92 117.66"/><polygon class="cls-2" points="683.2 117.66 694.73 106.13 692.97 104.37 692.97 104.37 681.44 115.9 683.2 117.66"/><polygon class="cls-2" points="696.56 117.66 708.09 106.13 706.33 104.37 706.33 104.37 694.8 115.9 696.56 117.66"/><polygon class="cls-2" points="703.24 117.66 714.77 106.13 713.01 104.37 713.01 104.37 701.48 115.9 703.24 117.66"/><polygon class="cls-2" points="676.52 117.66 688.05 106.13 686.29 104.37 686.29 104.37 674.76 115.9 676.52 117.66"/><polygon class="cls-2" points="689.88 117.66 701.41 106.13 699.65 104.37 699.65 104.37 688.12 115.9 689.88 117.66"/><polygon class="cls-2" points="656.47 117.66 668.01 106.13 666.25 104.37 666.25 104.37 654.72 115.9 656.47 117.66"/><polygon class="cls-2" points="649.79 117.66 661.33 106.13 659.57 104.37 659.57 104.37 648.04 115.9 649.79 117.66"/><polygon class="cls-2" points="663.15 117.66 674.69 106.13 672.93 104.37 672.93 104.37 661.4 115.9 663.15 117.66"/><polygon class="cls-2" points="669.84 117.66 681.37 106.13 679.61 104.37 679.61 104.37 668.08 115.9 669.84 117.66"/><polygon class="cls-2" points="643.11 117.66 654.64 106.13 652.89 104.37 652.89 104.37 641.36 115.9 643.11 117.66"/><polygon class="cls-2" points="716.6 117.66 728.13 106.13 726.38 104.37 726.38 104.37 714.84 115.9 716.6 117.66"/><polygon class="cls-2" points="723.28 117.66 734.82 106.13 733.06 104.37 733.06 104.37 721.52 115.9 723.28 117.66"/><polygon class="cls-2" points="536.22 117.66 547.75 106.13 546 104.37 546 104.37 534.46 115.9 536.22 117.66"/><polygon class="cls-2" points="1.76 117.66 13.29 106.13 11.53 104.37 11.53 104.37 0 115.9 1.76 117.66"/><polygon class="cls-2" points="8.44 117.66 19.97 106.13 18.21 104.37 18.21 104.37 6.68 115.9 8.44 117.66"/><polygon class="cls-2" points="15.12 117.66 26.65 106.13 24.89 104.37 24.89 104.37 13.36 115.9 15.12 117.66"/><polygon class="cls-2" points="21.8 117.66 33.33 106.13 31.57 104.37 31.57 104.37 20.04 115.9 21.8 117.66"/><polygon class="cls-2" points="262.31 117.66 273.84 106.13 272.08 104.37 272.08 104.37 260.55 115.9 262.31 117.66"/><polygon class="cls-2" points="228.9 117.66 240.44 106.13 238.68 104.37 238.68 104.37 227.15 115.9 228.9 117.66"/><polygon class="cls-2" points="255.63 117.66 267.16 106.13 265.4 104.37 265.4 104.37 253.87 115.9 255.63 117.66"/><polygon class="cls-2" points="242.27 117.66 253.8 106.13 252.04 104.37 252.04 104.37 240.51 115.9 242.27 117.66"/><polygon class="cls-2" points="222.22 117.66 233.76 106.13 232 104.37 232 104.37 220.47 115.9 222.22 117.66"/><polygon class="cls-2" points="248.95 117.66 260.48 106.13 258.72 104.37 258.72 104.37 247.19 115.9 248.95 117.66"/><polygon class="cls-2" points="235.59 117.66 247.12 106.13 245.36 104.37 245.36 104.37 233.83 115.9 235.59 117.66"/><polygon class="cls-2" points="215.54 117.66 227.07 106.13 225.32 104.37 225.32 104.37 213.78 115.9 215.54 117.66"/><polygon class="cls-2" points="188.82 117.66 200.35 106.13 198.59 104.37 198.59 104.37 187.06 115.9 188.82 117.66"/><polygon class="cls-2" points="195.5 117.66 207.03 106.13 205.28 104.37 205.28 104.37 193.74 115.9 195.5 117.66"/><polygon class="cls-2" points="208.86 117.66 220.4 106.13 218.64 104.37 218.64 104.37 207.1 115.9 208.86 117.66"/><polygon class="cls-2" points="202.18 117.66 213.71 106.13 211.96 104.37 211.96 104.37 200.42 115.9 202.18 117.66"/><polygon class="cls-2" points="295.71 117.66 307.25 106.13 305.49 104.37 305.49 104.37 293.95 115.9 295.71 117.66"/><polygon class="cls-2" points="309.07 117.66 320.61 106.13 318.85 104.37 318.85 104.37 307.32 115.9 309.07 117.66"/><polygon class="cls-2" points="302.39 117.66 313.93 106.13 312.17 104.37 312.17 104.37 300.63 115.9 302.39 117.66"/><polygon class="cls-2" points="315.75 117.66 327.29 106.13 325.53 104.37 325.53 104.37 314 115.9 315.75 117.66"/><polygon class="cls-2" points="329.12 117.66 340.65 106.13 338.89 104.37 338.89 104.37 327.36 115.9 329.12 117.66"/><polygon class="cls-2" points="322.44 117.66 333.97 106.13 332.21 104.37 332.21 104.37 320.68 115.9 322.44 117.66"/><polygon class="cls-2" points="182.14 117.66 193.67 106.13 191.91 104.37 191.91 104.37 180.38 115.9 182.14 117.66"/><polygon class="cls-2" points="289.03 117.66 300.56 106.13 298.81 104.37 298.81 104.37 287.27 115.9 289.03 117.66"/><polygon class="cls-2" points="275.67 117.66 287.2 106.13 285.44 104.37 285.44 104.37 273.91 115.9 275.67 117.66"/><polygon class="cls-2" points="268.99 117.66 280.52 106.13 278.76 104.37 278.76 104.37 267.23 115.9 268.99 117.66"/><polygon class="cls-2" points="282.35 117.66 293.88 106.13 292.13 104.37 292.13 104.37 280.59 115.9 282.35 117.66"/><polygon class="cls-2" points="95.29 117.66 106.82 106.13 105.06 104.37 105.06 104.37 93.53 115.9 95.29 117.66"/><polygon class="cls-2" points="68.56 117.66 80.1 106.13 78.34 104.37 78.34 104.37 66.81 115.9 68.56 117.66"/><polygon class="cls-2" points="75.25 117.66 86.78 106.13 85.02 104.37 85.02 104.37 73.49 115.9 75.25 117.66"/><polygon class="cls-2" points="81.93 117.66 93.46 106.13 91.7 104.37 91.7 104.37 80.17 115.9 81.93 117.66"/><polygon class="cls-2" points="88.61 117.66 100.14 106.13 98.38 104.37 98.38 104.37 86.85 115.9 88.61 117.66"/><polygon class="cls-2" points="28.48 117.66 40.01 106.13 38.26 104.37 38.26 104.37 26.72 115.9 28.48 117.66"/><polygon class="cls-2" points="61.88 117.66 73.42 106.13 71.66 104.37 71.66 104.37 60.13 115.9 61.88 117.66"/><polygon class="cls-2" points="35.16 117.66 46.69 106.13 44.94 104.37 44.94 104.37 33.4 115.9 35.16 117.66"/><polygon class="cls-2" points="41.84 117.66 53.38 106.13 51.62 104.37 51.62 104.37 40.09 115.9 41.84 117.66"/><polygon class="cls-2" points="48.52 117.66 60.06 106.13 58.3 104.37 58.3 104.37 46.77 115.9 48.52 117.66"/><polygon class="cls-2" points="101.97 117.66 113.5 106.13 111.75 104.37 111.75 104.37 100.21 115.9 101.97 117.66"/><polygon class="cls-2" points="55.2 117.66 66.74 106.13 64.98 104.37 64.98 104.37 53.45 115.9 55.2 117.66"/><polygon class="cls-2" points="148.74 117.66 160.27 106.13 158.51 104.37 158.51 104.37 146.98 115.9 148.74 117.66"/><polygon class="cls-2" points="155.41 117.66 166.95 106.13 165.19 104.37 165.19 104.37 153.66 115.9 155.41 117.66"/><polygon class="cls-2" points="175.46 117.66 186.99 106.13 185.23 104.37 185.23 104.37 173.7 115.9 175.46 117.66"/><polygon class="cls-2" points="162.1 117.66 173.63 106.13 171.87 104.37 171.87 104.37 160.34 115.9 162.1 117.66"/><polygon class="cls-2" points="142.05 117.66 153.59 106.13 151.83 104.37 151.83 104.37 140.3 115.9 142.05 117.66"/><polygon class="cls-2" points="168.78 117.66 180.31 106.13 178.55 104.37 178.55 104.37 167.02 115.9 168.78 117.66"/><polygon class="cls-2" points="135.37 117.66 146.91 106.13 145.15 104.37 145.15 104.37 133.62 115.9 135.37 117.66"/><polygon class="cls-2" points="108.65 117.66 120.18 106.13 118.43 104.37 118.42 104.37 106.89 115.9 108.65 117.66"/><polygon class="cls-2" points="115.33 117.66 126.86 106.13 125.11 104.37 125.11 104.37 113.57 115.9 115.33 117.66"/><polygon class="cls-2" points="122.01 117.66 133.54 106.13 131.79 104.37 131.79 104.37 120.25 115.9 122.01 117.66"/><polygon class="cls-2" points="128.69 117.66 140.22 106.13 138.47 104.37 138.47 104.37 126.94 115.9 128.69 117.66"/></svg>