<svg xmlns="http://www.w3.org/2000/svg" viewBox="0 0 130.8 74.76"><defs><style>.cls-1{fill:none;}</style></defs><title>Element 2</title><g id="Ebene_2" data-name="Ebene 2"><g id="Ebene_1-2" data-name="Ebene 1"><path class="cls-1" d="M130.8,22.89a7.64,7.64,0,0,1-.72-1.39C125.92,7.39,116.15,0,101.52,0,82,0,62.4.1,42.84,0c-11.65-.07-19.76,5.37-25,15.42-4,7.61-5.16,15.82-4.61,24.33.1,1.54,0,3.09,0,4.92H7.28c-5.73,0-7.17,1.46-7.21,7.19,0,5.26.11,10.53,0,15.78-.09,3.14.88,5.53,3.63,7.11"/><path d="M5.91,74.75A5.7,5.7,0,0,1,.5,71.16,9.22,9.22,0,0,1,0,67.64c.16-5.25,0-10.52,0-15.78,0-5.73,1.48-7.14,7.21-7.19H8.5a4.69,4.69,0,0,0,4.72-4.87v0c-.55-8.51.62-16.72,4.61-24.33C23.1,5.37,31.21-.07,42.83,0,62.39.12,82,0,101.51,0c14.55,0,24.3,7.31,28.49,21.27l.38.91a4.46,4.46,0,0,1,.41,1.91v27a4.82,4.82,0,0,1-.41,1.91,80.42,80.42,0,0,1-4.26,9.16,26.48,26.48,0,0,1-18.49,12.52,6,6,0,0,1-.68.09Zm49.56-2.44c15.52,0,31,.07,46.56-.06a30.4,30.4,0,0,0,9.12-1.4,25.17,25.17,0,0,0,17-27.6c-2-12.67-12.38-21.58-25.86-21.71q-30-.27-59.92.07a39.29,39.29,0,0,0-13,2.52C22.28,26.79,18.58,33,18.9,40.3A16.86,16.86,0,0,0,30.8,56a46.32,46.32,0,0,0,12.33,1.76c17.14.19,34.28.11,51.41,0a22.17,22.17,0,0,0,6.37-.88c5.27-1.66,8-6,7.34-11.11-.62-4.79-4.39-8.25-9.93-8.29q-27.54-.24-55.06,0a5,5,0,0,0-3.76,3C39,42.94,41,44,43.34,43.94h53c2.28,0,4.45.69,4.08,3.19-.18,1.23-2.4,3.07-3.72,3.08q-27.33.3-54.65,0c-5.49,0-9.27-4.46-9.22-9.83s3.66-9.27,9.21-9.32c19-.16,38-.31,57.07.07,9.55.18,15.87,7.55,15.57,16.71-.28,8.67-7,15.86-16.69,16-20.09.4-40.21.41-60.3-.09-9.57-.24-18.1-3.75-22.06-13.62-1-2.59-2.39-3.62-5.07-3.26a20.56,20.56,0,0,1-4,0c-2.93-.16-4.18,1.21-4.15,4.1.06,5.26,0,10.52,0,15.78,0,4.91.48,5.38,5.28,5.39Q31.58,72.33,55.47,72.31Zm72.46-37.89c2.51-19-8.61-32-26.52-32.09-19.43-.07-38.86,0-58.29,0-11,0-18.73,5.15-23.51,14.86-3.81,7.72-4.75,15.88-3.83,24.42C16.93,52.28,22.72,59,33.27,61a53.78,53.78,0,0,0,9.65.87q25.69.12,51.41,0a28.23,28.23,0,0,0,6.41-.64c7.9-1.92,12.35-8.09,11.51-15.69-.76-7-6.53-12-14.46-12-18.08-.11-36.16-.07-54.24,0-5.34,0-8.38,2.81-8.29,7.29s3.18,7.24,8.4,7.25q25.5.06,51,0a29.09,29.09,0,0,0,3.22-.36V46.6c-1.37-.07-2.74-.19-4.11-.2H43.17c-3.82,0-6.07-2.1-6.23-5.45a5.2,5.2,0,0,1,4.65-5.71,5.35,5.35,0,0,1,.8,0c18.89-.09,37.79-.22,56.67.1,7.41.12,12,5.74,11.69,12.79s-6.23,12.09-14.6,12.13c-18.49.1-37,.14-55.46-.08A37.53,37.53,0,0,1,29.24,58,19.33,19.33,0,0,1,16.56,40.84c-.29-8.59,3.32-15.21,11.19-18.43a43.3,43.3,0,0,1,15.3-3c18.34-.34,36.7.15,55.05-.23,12.54-.29,22.77,3.32,29.83,15.24Z"/><path class="cls-1" d="M107.31,74.75c7.65-2.16,14.56-5.55,18.82-12.61,1.9-3.15,3.13-6.7,4.67-10.07V74.75Z"/><path class="cls-1" d="M55.47,72.31H7.7c-4.8,0-5.26-.48-5.28-5.39V51.14c0-2.89,1.22-4.26,4.15-4.1a20.56,20.56,0,0,0,4,0c2.68-.36,4,.67,5.07,3.26,4,9.87,12.49,13.38,22.06,13.62,20.09.5,40.21.49,60.3.09,9.64-.19,16.41-7.38,16.69-16,.3-9.16-6-16.53-15.57-16.71-19-.38-38.05-.23-57.07-.07-5.55,0-9.16,4.1-9.21,9.32s3.73,9.78,9.22,9.83q27.32.27,54.65,0c1.32,0,3.54-1.85,3.72-3.08.37-2.5-1.8-3.19-4.08-3.19h-53c-2.38,0-4.34-1-3.84-3.43a5,5,0,0,1,3.76-3q27.51-.27,55.06,0c5.54,0,9.31,3.5,9.93,8.29.67,5.11-2.07,9.45-7.34,11.11a22.17,22.17,0,0,1-6.37.88c-17.13.07-34.27.15-51.41,0A46.32,46.32,0,0,1,30.77,56.2a16.86,16.86,0,0,1-11.9-15.73C18.59,33.21,22.25,27,29.34,24.3a39.29,39.29,0,0,1,13-2.52q30-.39,59.92-.07c13.48.13,23.84,9,25.86,21.71a25.17,25.17,0,0,1-17,27.6,30.4,30.4,0,0,1-9.12,1.4C86.51,72.38,71,72.31,55.47,72.31Z"/><path class="cls-1" d="M127.93,34.42c-7.06-11.92-17.29-15.53-29.88-15.28-18.35.38-36.71-.11-55,.23a43.3,43.3,0,0,0-15.3,3c-7.87,3.22-11.48,9.84-11.19,18.43A19.33,19.33,0,0,0,29.19,58a37.53,37.53,0,0,0,11.45,2.13c18.48.22,37,.18,55.46.08,8.37,0,14.25-5.11,14.6-12.13S106.42,35.4,99,35.28c-18.88-.32-37.78-.19-56.67-.1a5.21,5.21,0,0,0-5.47,4.94,4,4,0,0,0,0,.77c.16,3.35,2.41,5.44,6.23,5.45h50.6c1.37,0,2.74.13,4.11.2v1.09a29.09,29.09,0,0,1-3.22.36h-51c-5.22,0-8.3-2.75-8.4-7.25s3-7.27,8.29-7.29c18.08,0,36.16-.09,54.24,0,7.93,0,13.7,5,14.46,12,.84,7.6-3.61,13.77-11.51,15.69a28.23,28.23,0,0,1-6.41.64q-25.71.07-51.41,0a53.78,53.78,0,0,1-9.65-.87c-10.55-2-16.34-8.69-17.49-19.36-.92-8.54,0-16.7,3.83-24.42C24.34,7.42,32,2.23,43.07,2.27c19.43.07,38.86,0,58.29,0C119.32,2.39,130.44,15.46,127.93,34.42Z"/></g></g></svg>