<svg xmlns="http://www.w3.org/2000/svg" viewBox="0 0 834.22 102.86"><defs><style>.cls-1{fill:none;}</style></defs><title>Element 1</title><g id="Ebene_2" data-name="Ebene 2"><g id="Ebene_1-2" data-name="Ebene 1"><path class="cls-1" d="M215.44,102.86H64.79a34.27,34.27,0,0,1,3.78-1.16c3.53-.67,5.33-2.34,3.82-6.33-.73.12-1.51.18-2.26.37-12.06,3-18.18-.52-21-12.66a76.59,76.59,0,0,1-.55-30.94C51,37.93,56.8,34.05,70.93,37.22l2.14-4.85c-10.59-5.7-22.12-2.31-27.3,7.82A34.19,34.19,0,0,0,43,47.74a82,82,0,0,0-.43,35.71c2,9.78,6.79,17.26,17.41,19.41H17a9.09,9.09,0,0,1,1.42-.66c8.29-2,12.25-6.18,13.53-14.53S31,72.18,23.87,67C19.51,63.87,15,61,10.76,57.59A13.28,13.28,0,0,1,7.14,41.85C9.44,37,14.9,34.58,21.29,36a76.12,76.12,0,0,1,8.16,2.75L32.18,34C20.7,25.33,6.52,29.38,0,42.93V0H581.52C571.83,2.29,567,8.7,566.21,18.36a35.85,35.85,0,0,0-.17,6.46c.31,3.07-.73,4.91-3.49,6.47-5.76,3.25-6.18,4.78-4.36,11.49l7.86.4V101h17.31V42.68h11.49V29h-12.6c1.12-4.8,1.08-9.64,3.39-12.69,1.48-2,6.44-1.25,10.46-1.83l4-11.52L592.86,0h28.35c-10.11,2.39-14.73,9.2-15.38,19.17a31.51,31.51,0,0,0-.09,5.66c.35,3.06-.75,4.9-3.49,6.45-5.76,3.26-6.18,4.78-4.36,11.5l7.85.4V101h17.31V42.69h11.5V29H622c1.11-4.8,1.06-9.64,3.36-12.7,1.47-1.94,6.44-1.25,10.47-1.84,1.1-3.19,2.49-7.23,4-11.52L632.55,0H834.22V51a8.73,8.73,0,0,1-.72-1.39c-4.16-14.11-13.93-21.48-28.56-21.49-19.56,0-39.12.09-58.68,0-11.65-.07-19.76,5.37-25,15.42-4,7.61-5.16,15.82-4.61,24.33.1,1.54,0,3.09,0,4.92-2.21,0-4.08,0-5.95,0-5.73,0-7.17,1.46-7.21,7.19,0,5.26.11,10.53-.05,15.78-.09,3.14.88,5.53,3.63,7.11H671.42c4.5-1.3,9.05-2.46,13.47-4a4.42,4.42,0,0,0,2.52-3c.31-3.85.12-7.73.12-11.63-4.69,1.44-8.93,3.31-13.36,4-11.88,1.79-19.24-5.9-17.7-18.49h34c.39-10,.66-19.56-3.72-28.49-3.48-7.1-9-11.7-17-12.93-13.25-2-23.42,4-28.18,16.94a59.48,59.48,0,0,0-2.17,32.32c2.6,13.37,9.73,22.65,24,24.87.23,0,.42.3.63.46H528.07c9.81-1.72,17.42-6.62,21.26-16a54.9,54.9,0,0,0,.17-42.55C545,33.24,536,27.62,524.94,27.87c-11.67.26-20.15,6.37-24.45,17.81-3.24,8.64-3.79,17.62-2.72,26.7,1.81,15.29,8.14,27,24.63,30.48H483.52a52.66,52.66,0,0,0,6.52-1.93c1-.45,2.4-1.68,2.47-2.65.29-3.81.12-7.66.12-11.76-1.29.28-1.93.4-2.57.56-8.65,2.17-11.06.29-11.08-8.71q0-13.14,0-26.28V42.82h12.86V29.24H479V14.29c-10.42-1.9-10.87-1.7-13.36,7.44-1.19,4.35-2.46,8.23-6.93,10.7-5.12,2.83-5.22,4.11-3.62,10.34l6.45.43c0,12.8,0,25.18,0,37.56.06,13.17,3.35,17.81,15.47,22.1H428.45a25.81,25.81,0,0,1,2.66-.76c11.12-1.95,17.15-8.36,18.13-19.57.77-8.81-2.46-15.82-9.85-20.82-3.91-2.64-7.94-5.11-11.68-8-2.89-2.21-4.31-5.31-2.52-8.92,1.67-3.38,4.85-3.69,8-3,3.37.75,6.65,1.92,10.26,3C445.24,41,447,37.1,448.9,33c-9.42-5.49-19-6.65-29-3.36-8.2,2.69-12.52,9.14-12.75,17.77-.24,9.12,4,15.68,11.3,20.66,3.55,2.43,7.21,4.74,10.58,7.41a7.72,7.72,0,0,1,2.48,9.15c-1.29,3.57-4.43,4.6-7.88,4.36a33.68,33.68,0,0,1-7.51-1.44c-2.91-.91-5.68-2.25-9-3.58,0,4.1-.26,7.88.12,11.59.16,1.49,1.42,3.58,2.7,4.09a100.38,100.38,0,0,0,11.19,3.22H332.07c2.54-.83,5.07-1.68,7.62-2.47,3.9-1.22,4.69-3.76,3.27-7.35-2.88,1-5.6,2.28-8.44,3-7.92,2-14.19-.49-17.65-7-3.69-7-4.35-14.57-4.23-22.86h33c.44-10.34.17-20-5.3-28.65-5.6-8.84-17.63-10.69-24.71-3.33a31.65,31.65,0,0,0-6.91,12.08c-3.29,10.3-3.35,21-1.78,31.67,1.75,11.91,6.4,21.74,19.44,24.94H278.61c9.39-2.48,13.64-9.43,15.66-18.21a80.54,80.54,0,0,0,.7-33.33,41.53,41.53,0,0,0-4.82-13.56c-6.18-10.2-20-10.67-27.42-1.38-.76.94-1.47,1.91-2.2,2.88l-.81-.42V1H254V101h4.77c.34-2.94.64-5.64.95-8.34a25.93,25.93,0,0,0,14,10.25H219.49a22,22,0,0,0,13.58-9.78q.48,3.93,1,7.9h4.73c.08-.89.19-1.54.19-2.19,0-16.18.11-32.37-.12-48.54a47.17,47.17,0,0,0-1.94-11.5,10.91,10.91,0,0,0-7.52-7.88c-7.81-2.38-15.07-.88-22.13,3.5l2.64,4.53A62.22,62.22,0,0,1,216,36.38a24.94,24.94,0,0,1,5.93-1.05c4.62-.19,8,1.6,9,5.91,1.37,5.92,1.77,12.07,2.61,18.27-5,.46-8.92.62-12.75,1.2-10.26,1.56-17,8.25-18.21,17.8C201,91,205,98.51,215.44,102.86ZM128,31.65q7.59,34.7,15.17,69.4h7.49C154.82,81.45,158.91,62,163.11,42L175,100.87c7.38.86,7.35.86,8.78-5.5q6.7-29.81,13.45-59.59c.31-1.4.56-2.81.84-4.22-5.88-1-5.88-1-6.94,3.92q-3.33,15.63-6.68,31.26-2.56,12.08-5.11,24.16a2.68,2.68,0,0,1-1.14-1.8c-3.73-18.24-7.48-36.46-11.11-54.71-.47-2.36-1.24-3.42-3.87-3.46-2.78-.05-3.69,1.05-4.21,3.56-3,14.79-6.24,29.55-9.33,44.34-.88,4.21-1.59,8.45-2.58,13.76-4.16-19.78-8.07-38.38-12-57C134.07,30.47,133.88,30.36,128,31.65ZM83.05.87v100h6V96.13c0-12.55-.4-25.12.26-37.64A52.82,52.82,0,0,1,93.64,41.1c2-4.72,7.77-6.45,12.88-5.34s6.8,5,7.45,9.48a66.73,66.73,0,0,1,.55,9.28c0,14,0,28.06,0,42.1V101h5.88c.1-1,.25-1.73.25-2.51,0-16.19,0-32.38-.07-48.57a38.48,38.48,0,0,0-1.18-8.39c-1.38-6-4.67-10.32-11.07-11.45-6.65-1.18-12.29.65-16.58,6-.77,1-1.49,2-2.91,3.88V.87ZM363.69,101.05V96.34c0-11.88-.36-23.77.15-35.63a66.91,66.91,0,0,1,3.42-18.1c1.84-5.45,7.64-7.84,13.27-7,4.25.67,7.17,4.08,8.07,9.94a65.25,65.25,0,0,1,.67,9.68c.07,13.77,0,27.53,0,41.3,0,1.44.12,2.88.19,4.43h5.62c.08-1.13.21-2,.21-3,0-15.79,0-31.58,0-47.37a43.49,43.49,0,0,0-.89-8c-1.26-6.28-4.46-11-11.12-12.48a16.23,16.23,0,0,0-17.38,6.76c-.71,1-1.41,2-2.62,3.71l-.71-9.6-4.93.26v69.75Z"/><path d="M522.4,102.86c-16.49-3.47-22.82-15.19-24.63-30.48-1.07-9.08-.52-18.06,2.72-26.7,4.3-11.44,12.78-17.55,24.45-17.81C536,27.62,545,33.24,549.5,44.29a54.9,54.9,0,0,1-.17,42.55c-3.84,9.4-11.45,14.3-21.26,16ZM536.14,66a5.47,5.47,0,0,0,0-1.76c-.77-5-1.25-9.77-2.44-14.41-1.25-4.89-4.17-7-8.17-7.06-4.18-.06-7.23,2.15-8.59,7.11A57.22,57.22,0,0,0,517,80.59c1.34,4.83,4.25,7.06,8.18,7.14s7.07-2,8.34-6.86S535.35,70.94,536.14,66Z"/><path d="M664.13,102.86c-.21-.16-.4-.42-.63-.46-14.3-2.22-21.43-11.5-24-24.87a59.48,59.48,0,0,1,2.17-32.32c4.76-13,14.93-19,28.18-16.94,8,1.23,13.5,5.83,17,12.93,4.38,8.93,4.11,18.46,3.72,28.49h-34c-1.54,12.59,5.82,20.28,17.7,18.49,4.43-.67,8.67-2.54,13.36-4,0,3.9.19,7.78-.12,11.63a4.42,4.42,0,0,1-2.52,3c-4.42,1.54-9,2.7-13.47,4Zm10.33-45.95c-1.32-4.57-1.9-8.62-3.65-12.08-2.44-4.82-8-4.9-11.21-.55-2.7,3.73-3.1,8-3.25,12.63Z"/><path d="M707.06,102.86c-2.75-1.58-3.72-4-3.63-7.11.16-5.25,0-10.52.05-15.78,0-5.73,1.48-7.14,7.21-7.19,1.87,0,3.74,0,5.95,0,0-1.83.08-3.38,0-4.92-.55-8.51.62-16.72,4.61-24.33,5.27-10.05,13.38-15.49,25-15.42,19.56.12,39.12,0,58.68,0,14.63,0,24.4,7.38,28.56,21.49a8.73,8.73,0,0,0,.72,1.39V80.18c-1.54,3.37-2.77,6.92-4.67,10.07-4.26,7.06-11.17,10.45-18.82,12.61Zm51.83-2.44c15.52,0,31,.07,46.56-.06a30.52,30.52,0,0,0,9.12-1.4,25.16,25.16,0,0,0,17-27.6c-2-12.67-12.38-21.58-25.86-21.71q-30-.27-59.92.07a39.38,39.38,0,0,0-13,2.52C725.7,54.9,722,61.15,722.32,68.41a16.87,16.87,0,0,0,11.9,15.73,46.61,46.61,0,0,0,12.33,1.76c17.14.19,34.28.11,51.41,0a22,22,0,0,0,6.37-.88c5.27-1.66,8-6,7.34-11.11-.62-4.79-4.39-8.25-9.93-8.29q-27.53-.24-55.06,0c-1.32,0-3.51,1.74-3.76,3-.5,2.43,1.46,3.47,3.84,3.43,1.22,0,2.43,0,3.65,0q24.69,0,49.39,0c2.28,0,4.45.69,4.08,3.19-.18,1.23-2.4,3.07-3.72,3.08q-27.33.3-54.65,0c-5.49,0-9.27-4.46-9.22-9.83s3.66-9.27,9.21-9.32c19-.16,38-.31,57.07.07,9.55.18,15.87,7.55,15.57,16.71-.28,8.67-7,15.86-16.69,16-20.09.4-40.21.41-60.3-.09-9.57-.24-18.1-3.75-22.06-13.62-1-2.59-2.39-3.62-5.07-3.26a21.07,21.07,0,0,1-4,0c-2.93-.16-4.18,1.21-4.15,4.1.06,5.26,0,10.52,0,15.78,0,4.91.48,5.38,5.28,5.39Q735,100.44,758.89,100.42Zm72.46-37.89c2.51-19-8.61-32-26.52-32.09-19.43-.07-38.86,0-58.29,0-11,0-18.73,5.15-23.51,14.86-3.81,7.72-4.75,15.88-3.83,24.42,1.15,10.67,6.94,17.39,17.49,19.36a54.71,54.71,0,0,0,9.65.87q25.7.12,51.41,0a28.06,28.06,0,0,0,6.41-.64c7.9-1.92,12.35-8.09,11.51-15.69-.76-7-6.53-12-14.46-12-18.08-.11-36.16-.07-54.24,0-5.34,0-8.38,2.81-8.29,7.29s3.18,7.24,8.4,7.25q25.5.06,51,0a27.34,27.34,0,0,0,3.22-.36l0-1.09c-1.37-.07-2.74-.19-4.11-.2-16.87,0-33.74,0-50.6,0-3.82,0-6.07-2.1-6.23-5.45a5.21,5.21,0,0,1,5.45-5.73c18.89-.09,37.79-.22,56.67.1,7.41.12,12,5.74,11.69,12.79s-6.23,12.09-14.6,12.13c-18.49.1-37,.14-55.46-.08a37.76,37.76,0,0,1-11.45-2.13,19.35,19.35,0,0,1-12.68-17.19c-.29-8.59,3.32-15.21,11.19-18.43a43.32,43.32,0,0,1,15.3-3c18.34-.34,36.7.15,55.05-.23C814.06,47,824.29,50.61,831.35,62.53Z"/><path d="M592.86,0l7.2,3-4,11.52c-4,.58-9-.12-10.46,1.83-2.31,3.05-2.27,7.89-3.39,12.69h12.6V42.68H583.36V101H566.05V43.18l-7.86-.4c-1.82-6.71-1.4-8.24,4.36-11.49,2.76-1.56,3.8-3.4,3.49-6.47a35.85,35.85,0,0,1,.17-6.46C567,8.7,571.83,2.29,581.52,0Z"/><path d="M632.55,0l7.2,2.94c-1.47,4.29-2.86,8.33-4,11.52-4,.59-9-.1-10.47,1.84C623,19.36,623.07,24.2,622,29h12.59V42.69h-11.5V101H605.74V43.18l-7.85-.4c-1.82-6.72-1.4-8.24,4.36-11.5,2.74-1.55,3.84-3.39,3.49-6.45a31.51,31.51,0,0,1,.09-5.66c.65-10,5.27-16.78,15.38-19.17Z"/><path d="M421.16,102.86A100.38,100.38,0,0,1,410,99.64c-1.28-.51-2.54-2.6-2.7-4.09-.38-3.71-.12-7.49-.12-11.59,3.27,1.33,6,2.67,9,3.58A33.68,33.68,0,0,0,423.61,89c3.45.24,6.59-.79,7.88-4.36A7.72,7.72,0,0,0,429,75.47c-3.37-2.67-7-5-10.58-7.41-7.27-5-11.54-11.54-11.3-20.66.23-8.63,4.55-15.08,12.75-17.77,10-3.29,19.6-2.13,29,3.36-1.89,4.11-3.66,8-5.42,11.83-3.61-1.08-6.89-2.25-10.26-3-3.18-.7-6.36-.39-8,3-1.79,3.61-.37,6.71,2.52,8.92,3.74,2.87,7.77,5.34,11.68,8,7.39,5,10.62,12,9.85,20.82-1,11.21-7,17.62-18.13,19.57a25.81,25.81,0,0,0-2.66.76Z"/><path d="M477,102.86c-12.12-4.29-15.41-8.93-15.47-22.1-.05-12.38,0-24.76,0-37.56l-6.45-.43c-1.6-6.23-1.5-7.51,3.62-10.34,4.47-2.47,5.74-6.35,6.93-10.7,2.49-9.14,2.94-9.34,13.36-7.44v15h12.82V42.82H479v9.27q0,13.14,0,26.28c0,9,2.43,10.88,11.08,8.71.64-.16,1.28-.28,2.57-.56,0,4.1.17,8-.12,11.76-.07,1-1.42,2.2-2.47,2.65a52.66,52.66,0,0,1-6.52,1.93Z"/><path d="M273.75,102.86a25.93,25.93,0,0,1-14-10.25c-.31,2.7-.61,5.4-.95,8.34H254V1h5.7V38.84l.81.42c.73-1,1.44-1.94,2.2-2.88,7.43-9.29,21.24-8.82,27.42,1.38A41.53,41.53,0,0,1,295,51.32a80.54,80.54,0,0,1-.7,33.33c-2,8.78-6.27,15.73-15.66,18.21Zm16.78-36.2c-1.13-6.6-2-14.65-4-22.39-1.54-6-5.93-8.65-11.31-8.62-5.92,0-10.17,2.85-12.08,8.36a51.74,51.74,0,0,0-2.67,12.16c-.92,10.22-1.26,20.5,2.11,30.42,2.33,6.84,7,10.4,12.92,10.36,5.68,0,10-3.6,11.83-10.85C288.79,80.26,289.33,74.19,290.53,66.66Z"/><path d="M326.4,102.86c-13-3.2-17.69-13-19.44-24.94-1.57-10.65-1.51-21.37,1.78-31.67a31.65,31.65,0,0,1,6.91-12.08c7.08-7.36,19.11-5.51,24.71,3.33,5.47,8.64,5.74,18.31,5.3,28.65h-33c-.12,8.29.54,15.88,4.23,22.86,3.46,6.54,9.73,9,17.65,7,2.84-.72,5.56-2,8.44-3,1.42,3.59.63,6.13-3.27,7.35-2.55.79-5.08,1.64-7.62,2.47Zm13.08-42.44c0-7.61-.71-14.53-4.92-20.54-4.09-5.84-11.88-6.15-16.2-.52-4.72,6.15-5.29,13.49-5.6,21.06Z"/><path d="M215.44,102.86C205,98.51,201,91,202.54,78.51c1.19-9.55,8-16.24,18.21-17.8,3.83-.58,7.73-.74,12.75-1.2-.84-6.2-1.24-12.35-2.61-18.27-1-4.31-4.38-6.1-9-5.91A24.94,24.94,0,0,0,216,36.38a62.22,62.22,0,0,0-6.07,2.52l-2.64-4.53c7.06-4.38,14.32-5.88,22.13-3.5a10.91,10.91,0,0,1,7.52,7.88,47.17,47.17,0,0,1,1.94,11.5c.23,16.17.12,32.36.12,48.54,0,.65-.11,1.3-.19,2.19H234q-.49-4-1-7.9a22,22,0,0,1-13.58,9.78Zm18.32-37.95c-5.48.56-9.39.7-13.2,1.41-6.41,1.19-10.44,5.26-11.22,11.67a34.06,34.06,0,0,0,.58,12c1.83,7.44,10.32,9.84,16,4.61,2.09-1.92,4.11-4.67,4.66-7.36C232,80.21,232.67,73,233.76,64.91Z"/><path d="M0,42.93C6.52,29.38,20.7,25.33,32.18,34l-2.73,4.72A76.12,76.12,0,0,0,21.29,36c-6.39-1.4-11.85,1-14.15,5.87a13.28,13.28,0,0,0,3.62,15.74C15,61,19.51,63.87,23.87,67,31,72.18,33.26,79.27,32,87.67s-5.24,12.51-13.53,14.53a9.09,9.09,0,0,0-1.42.66H10.53L0,98.81V91.52A22.1,22.1,0,0,0,14.52,96.6c5.91-.08,10-3.31,11.16-9.06s.09-11-4.82-14.86a79.74,79.74,0,0,0-7.54-5.36C7.21,63.56,2.19,58.93,0,51.83Z"/><path class="cls-1" d="M0,51.83c2.19,7.1,7.21,11.73,13.32,15.49a79.74,79.74,0,0,1,7.54,5.36c4.91,3.85,6,9.07,4.82,14.86s-5.25,9-11.16,9.06A22.1,22.1,0,0,1,0,91.52Z"/><path d="M59.93,102.86c-10.62-2.15-15.42-9.63-17.41-19.41A82,82,0,0,1,43,47.74a34.19,34.19,0,0,1,2.82-7.55C51,30.06,62.48,26.67,73.07,32.37l-2.14,4.85c-14.13-3.17-20,.71-22.4,14.92a76.59,76.59,0,0,0,.55,30.94c2.87,12.14,9,15.68,21,12.66.75-.19,1.53-.25,2.26-.37,1.51,4-.29,5.66-3.82,6.33a34.27,34.27,0,0,0-3.78,1.16Z"/><path class="cls-1" d="M810.73,102.86c7.65-2.16,14.56-5.55,18.82-12.61,1.9-3.15,3.13-6.7,4.67-10.07v22.68Z"/><path class="cls-1" d="M0,98.81l10.53,4H0Z"/><path d="M128,31.65c5.84-1.29,6-1.18,7.11,4,3.92,18.6,7.83,37.2,12,57,1-5.31,1.7-9.55,2.58-13.76C152.81,64,156,49.28,159.05,34.49c.52-2.51,1.43-3.61,4.21-3.56,2.63,0,3.4,1.1,3.87,3.46,3.63,18.25,7.38,36.47,11.11,54.71a2.68,2.68,0,0,0,1.14,1.8q2.56-12.08,5.11-24.16,3.33-15.64,6.68-31.26c1.06-5,1.06-5,6.94-3.92-.28,1.41-.53,2.82-.84,4.22q-6.72,29.79-13.45,59.59c-1.43,6.36-1.4,6.36-8.78,5.5L163.11,42c-4.2,20-8.29,39.46-12.41,59.06h-7.49Q135.62,66.34,128,31.65Z"/><path d="M83.05.87h5.81V40c1.42-1.89,2.14-2.91,2.91-3.88,4.29-5.38,9.93-7.21,16.58-6,6.4,1.13,9.69,5.47,11.07,11.45A38.48,38.48,0,0,1,120.6,50c.12,16.19.08,32.38.07,48.57,0,.78-.15,1.56-.25,2.51h-5.88V96.62c0-14,0-28.07,0-42.1a66.73,66.73,0,0,0-.55-9.28c-.65-4.49-2.37-8.38-7.45-9.48s-10.89.62-12.88,5.34A52.82,52.82,0,0,0,89.3,58.49C88.64,71,89.06,83.58,89,96.13v4.76h-6Z"/><path d="M363.69,101.05h-6.05V31.3l4.93-.26.71,9.6c1.21-1.72,1.91-2.72,2.62-3.71a16.23,16.23,0,0,1,17.38-6.76c6.66,1.51,9.86,6.2,11.12,12.48a43.49,43.49,0,0,1,.89,8c.08,15.79,0,31.58,0,47.37,0,.91-.13,1.82-.21,3H389.5c-.07-1.55-.19-3-.19-4.43,0-13.77,0-27.53,0-41.3a65.25,65.25,0,0,0-.67-9.68c-.9-5.86-3.82-9.27-8.07-9.94-5.63-.88-11.43,1.51-13.27,7a66.91,66.91,0,0,0-3.42,18.1c-.51,11.86-.15,23.75-.15,35.63Z"/><path class="cls-1" d="M535.85,62.23a20,20,0,0,1,0,5.78,119.42,119.42,0,0,1-2.3,12.86c-1.27,4.81-4.42,6.94-8.34,6.86s-6.84-2.31-8.18-7.14A57.22,57.22,0,0,1,517,49.87c1.36-5,4.41-7.17,8.59-7.11,4,.06,6.92,2.17,8.17,7.06A116.34,116.34,0,0,1,535.85,62.23Z"/><path class="cls-1" d="M674.46,56.91H656.35c.15-4.58.55-8.9,3.25-12.63,3.16-4.35,8.77-4.27,11.21.55C672.56,48.29,673.14,52.34,674.46,56.91Z"/><path class="cls-1" d="M758.89,100.42q-23.88,0-47.77,0c-4.8,0-5.26-.48-5.28-5.39,0-5.26,0-10.52,0-15.78,0-2.89,1.22-4.26,4.15-4.1a21.07,21.07,0,0,0,4,0c2.68-.36,4,.67,5.07,3.26,4,9.87,12.49,13.38,22.06,13.62,20.09.5,40.21.49,60.3.09,9.64-.19,16.41-7.38,16.69-16,.3-9.16-6-16.53-15.57-16.71-19-.38-38.05-.23-57.07-.07-5.55,0-9.16,4.1-9.21,9.32s3.73,9.78,9.22,9.83q27.32.27,54.65,0c1.32,0,3.54-1.85,3.72-3.08.37-2.5-1.8-3.19-4.08-3.19q-24.7,0-49.39,0c-1.22,0-2.43,0-3.65,0-2.38,0-4.34-1-3.84-3.43.25-1.24,2.44-3,3.76-3q27.52-.27,55.06,0c5.54,0,9.31,3.5,9.93,8.29.67,5.11-2.07,9.45-7.34,11.11a22,22,0,0,1-6.37.88c-17.13.07-34.27.15-51.41,0a46.61,46.61,0,0,1-12.33-1.76,16.87,16.87,0,0,1-11.9-15.73c-.28-7.26,3.38-13.51,10.47-16.17a39.38,39.38,0,0,1,13-2.52q30-.39,59.92-.07c13.48.13,23.84,9,25.86,21.71a25.16,25.16,0,0,1-17,27.6,30.52,30.52,0,0,1-9.12,1.4C789.93,100.49,774.41,100.42,758.89,100.42Z"/><path class="cls-1" d="M831.35,62.53C824.29,50.61,814.06,47,801.47,47.25c-18.35.38-36.71-.11-55.05.23a43.32,43.32,0,0,0-15.3,3c-7.87,3.22-11.48,9.84-11.19,18.43a19.35,19.35,0,0,0,12.68,17.19,37.76,37.76,0,0,0,11.45,2.13c18.48.22,37,.18,55.46.08,8.37,0,14.25-5.11,14.6-12.13s-4.28-12.67-11.69-12.79c-18.88-.32-37.78-.19-56.67-.1A5.21,5.21,0,0,0,740.31,69c.16,3.35,2.41,5.44,6.23,5.45,16.86,0,33.73,0,50.6,0,1.37,0,2.74.13,4.11.2l0,1.09a27.34,27.34,0,0,1-3.22.36q-25.5,0-51,0c-5.22,0-8.3-2.75-8.4-7.25s3-7.27,8.29-7.29c18.08,0,36.16-.09,54.24,0,7.93,0,13.7,5,14.46,12,.84,7.6-3.61,13.77-11.51,15.69a28.06,28.06,0,0,1-6.41.64q-25.71.08-51.41,0a54.71,54.71,0,0,1-9.65-.87c-10.55-2-16.34-8.69-17.49-19.36-.92-8.54,0-16.7,3.83-24.42,4.78-9.71,12.46-14.9,23.51-14.86,19.43.07,38.86,0,58.29,0C822.74,30.5,833.86,43.57,831.35,62.53Z"/><path class="cls-1" d="M290.53,66.66c-1.2,7.53-1.74,13.6-3.2,19.44-1.81,7.25-6.15,10.81-11.83,10.85-5.94,0-10.59-3.52-12.92-10.36-3.37-9.92-3-20.2-2.11-30.42A51.74,51.74,0,0,1,263.14,44c1.91-5.51,6.16-8.34,12.08-8.36,5.38,0,9.77,2.64,11.31,8.62C288.54,52,289.4,60.06,290.53,66.66Z"/><path class="cls-1" d="M339.48,60.42H312.76c.31-7.57.88-14.91,5.6-21.06,4.32-5.63,12.11-5.32,16.2.52C338.77,45.89,339.53,52.81,339.48,60.42Z"/><path class="cls-1" d="M233.76,64.91c-1.09,8.09-1.73,15.3-3.19,22.33-.55,2.69-2.57,5.44-4.66,7.36-5.67,5.23-14.16,2.83-16-4.61a34.06,34.06,0,0,1-.58-12c.78-6.41,4.81-10.48,11.22-11.67C224.37,65.61,228.28,65.47,233.76,64.91Z"/></g></g></svg>